<?xml version="1.0" standalone="no"?>
<!DOCTYPE svg PUBLIC "-//W3C//DTD SVG 20010904//EN"
 "http://www.w3.org/TR/2001/REC-SVG-20010904/DTD/svg10.dtd">
<svg version="1.0" xmlns="http://www.w3.org/2000/svg"
 width="48.000000pt" height="48.000000pt" viewBox="0 0 48.000000 48.000000"
 preserveAspectRatio="xMidYMid meet">
<metadata>
Created by potrace 1.13, written by Peter Selinger 2001-2015
</metadata>
<g transform="translate(0.000000,48.000000) scale(0.100000,-0.100000)"
fill="#000000" stroke="none">
<path d="M74 463 c3 -10 28 -83 54 -163 l49 -145 55 -3 56 -3 51 153 c28 84
51 159 51 166 0 8 -15 12 -44 12 l-43 0 -33 -122 c-18 -68 -33 -124 -35 -126
-1 -1 -17 54 -36 123 l-33 125 -49 0 c-41 0 -48 -2 -43 -17z"/>
<path d="M127 73 c-4 -3 -7 -21 -7 -40 l0 -33 115 0 115 0 0 40 0 40 -108 0
c-60 0 -112 -3 -115 -7z"/>
</g>
</svg>
